<svg width="800" height="400" viewBox="0 0 800 400" fill="none" xmlns="http://www.w3.org/2000/svg">
<defs>
<linearGradient id="priceGrad" x1="0%" y1="0%" x2="0%" y2="100%">
<stop offset="0%" style="stop-color:#348E87;stop-opacity:0.3"/>
<stop offset="100%" style="stop-color:#348E87;stop-opacity:0.05"/>
</linearGradient>
</defs>
<rect width="800" height="400" fill="#1F2936"/>
<g>
<!-- Background Grid -->
<line x1="80" y1="50" x2="80" y2="350" stroke="#374151" stroke-width="1"/>
<line x1="180" y1="50" x2="180" y2="350" stroke="#374151" stroke-width="1"/>
<line x1="280" y1="50" x2="280" y2="350" stroke="#374151" stroke-width="1"/>
<line x1="380" y1="50" x2="380" y2="350" stroke="#374151" stroke-width="1"/>
<line x1="480" y1="50" x2="480" y2="350" stroke="#374151" stroke-width="1"/>
<line x1="580" y1="50" x2="580" y2="350" stroke="#374151" stroke-width="1"/>
<line x1="680" y1="50" x2="680" y2="350" stroke="#374151" stroke-width="1"/>
<line x1="80" y1="50" x2="800" y2="50" stroke="#374151" stroke-width="1"/>
<line x1="80" y1="100" x2="800" y2="100" stroke="#374151" stroke-width="1"/>
<line x1="80" y1="150" x2="800" y2="150" stroke="#374151" stroke-width="1"/>
<line x1="80" y1="200" x2="800" y2="200" stroke="#374151" stroke-width="1"/>
<line x1="80" y1="250" x2="800" y2="250" stroke="#374151" stroke-width="1"/>
<line x1="80" y1="300" x2="800" y2="300" stroke="#374151" stroke-width="1"/>
<line x1="80" y1="350" x2="800" y2="350" stroke="#374151" stroke-width="1"/>
</g>
<!-- Price Trend Data -->
<path d="M80 300 L180 290 L280 260 L380 220 L480 180 L580 140 L680 100 L800 50" stroke="#348E87" stroke-width="4" fill="none"/>
<!-- Data Points -->
<circle cx="80" cy="300" r="6" fill="#348E87"/>
<circle cx="180" cy="290" r="6" fill="#348E87"/>
<circle cx="280" cy="260" r="6" fill="#348E87"/>
<circle cx="380" cy="220" r="6" fill="#348E87"/>
<circle cx="480" cy="180" r="6" fill="#348E87"/>
<circle cx="580" cy="140" r="6" fill="#348E87"/>
<circle cx="680" cy="100" r="6" fill="#348E87"/>
<circle cx="800" cy="50" r="6" fill="#348E87"/>
<!-- Confidence Band -->
<path d="M80 300 L180 290 L280 260 L380 220 L480 180 L580 140 L680 100 L800 50 L800 40 L680 90 L580 130 L480 170 L380 210 L280 250 L180 280 L80 290 Z" fill="url(#priceGrad)"/>
<!-- Title -->
<text x="400" y="30" text-anchor="middle" fill="#FFFFFF" font-family="Arial, sans-serif" font-size="18" font-weight="bold">Phuket Resort Real Estate: Price Trend (YoY +3-6%)</text>
<!-- Y-axis Labels -->
<text x="60" y="60" fill="#FFFFFF" font-family="Arial, sans-serif" font-size="12">120</text>
<text x="60" y="110" fill="#FFFFFF" font-family="Arial, sans-serif" font-size="12">115</text>
<text x="60" y="160" fill="#FFFFFF" font-family="Arial, sans-serif" font-size="12">110</text>
<text x="60" y="210" fill="#FFFFFF" font-family="Arial, sans-serif" font-size="12">105</text>
<text x="60" y="260" fill="#FFFFFF" font-family="Arial, sans-serif" font-size="12">100</text>
<!-- X-axis Labels -->
<text x="80" y="380" text-anchor="middle" fill="#FFFFFF" font-family="Arial, sans-serif" font-size="12">2019</text>
<text x="180" y="380" text-anchor="middle" fill="#FFFFFF" font-family="Arial, sans-serif" font-size="12">2020</text>
<text x="280" y="380" text-anchor="middle" fill="#FFFFFF" font-family="Arial, sans-serif" font-size="12">2021</text>
<text x="380" y="380" text-anchor="middle" fill="#FFFFFF" font-family="Arial, sans-serif" font-size="12">2022</text>
<text x="480" y="380" text-anchor="middle" fill="#FFFFFF" font-family="Arial, sans-serif" font-size="12">2023</text>
<text x="580" y="380" text-anchor="middle" fill="#FFFFFF" font-family="Arial, sans-serif" font-size="12">2024</text>
<text x="680" y="380" text-anchor="middle" fill="#FFFFFF" font-family="Arial, sans-serif" font-size="12">2025</text>
<!-- YoY Labels -->
<text x="80" y="320" text-anchor="middle" fill="#348E87" font-family="Arial, sans-serif" font-size="10">Base</text>
<text x="180" y="320" text-anchor="middle" fill="#348E87" font-family="Arial, sans-serif" font-size="10">+2.0%</text>
<text x="280" y="320" text-anchor="middle" fill="#348E87" font-family="Arial, sans-serif" font-size="10">+2.0%</text>
<text x="380" y="320" text-anchor="middle" fill="#348E87" font-family="Arial, sans-serif" font-size="10">+3.8%</text>
<text x="480" y="320" text-anchor="middle" fill="#348E87" font-family="Arial, sans-serif" font-size="10">+3.7%</text>
<text x="580" y="320" text-anchor="middle" fill="#348E87" font-family="Arial, sans-serif" font-size="10">+3.6%</text>
<text x="680" y="320" text-anchor="middle" fill="#348E87" font-family="Arial, sans-serif" font-size="10">+3.4%</text>
</svg>
